<mxfile host="app.diagrams.net" modified="2024-02-28T09:18:15.293Z" agent="Mozilla/5.0 (Windows NT 10.0; Win64; x64) AppleWebKit/537.36 (KHTML, like Gecko) Chrome/122.0.0.0 Safari/537.36" etag="MldzU4ye8qleOGjUMmY8" version="23.1.1" type="github">
  <diagram name="Page-1" id="ad52d381-51e7-2e0d-a935-2d0ddd2fd229">
    <mxGraphModel dx="1050" dy="539" grid="1" gridSize="10" guides="1" tooltips="1" connect="1" arrows="1" fold="1" page="1" pageScale="1" pageWidth="1100" pageHeight="850" background="none" math="0" shadow="0">
      <root>
        <mxCell id="0" />
        <mxCell id="1" parent="0" />
        <mxCell id="mlnYqS1sxwCYaisOI2XQ-1" value="&lt;span&gt;一致性&lt;/span&gt;" style="whiteSpace=wrap;html=1;rounded=1;shadow=1;comic=0;labelBackgroundColor=none;strokeWidth=2;fontFamily=Verdana;fontSize=12;align=center;arcSize=50;" vertex="1" parent="1">
          <mxGeometry x="440" y="230" width="100" height="20" as="geometry" />
        </mxCell>
        <mxCell id="mlnYqS1sxwCYaisOI2XQ-2" value="事务" style="ellipse;whiteSpace=wrap;html=1;rounded=1;shadow=1;comic=0;labelBackgroundColor=none;strokeWidth=2;fontFamily=Verdana;fontSize=12;align=center;" vertex="1" parent="1">
          <mxGeometry x="230" y="190" width="120" height="80" as="geometry" />
        </mxCell>
        <mxCell id="mlnYqS1sxwCYaisOI2XQ-3" value="&lt;span&gt;持久性&lt;/span&gt;" style="whiteSpace=wrap;html=1;rounded=1;shadow=1;comic=0;labelBackgroundColor=none;strokeWidth=2;fontFamily=Verdana;fontSize=12;align=center;arcSize=50;" vertex="1" parent="1">
          <mxGeometry x="490" y="300" width="100" height="20" as="geometry" />
        </mxCell>
        <mxCell id="mlnYqS1sxwCYaisOI2XQ-5" value="&lt;span&gt;原子性&lt;/span&gt;" style="whiteSpace=wrap;html=1;rounded=1;shadow=1;comic=0;labelBackgroundColor=none;strokeWidth=2;fontFamily=Verdana;fontSize=12;align=center;arcSize=50;" vertex="1" parent="1">
          <mxGeometry x="290" y="120" width="100" height="20" as="geometry" />
        </mxCell>
        <mxCell id="mlnYqS1sxwCYaisOI2XQ-6" value="relation" style="edgeStyle=none;rounded=1;html=1;labelBackgroundColor=none;startArrow=none;startFill=0;startSize=5;endArrow=classicThin;endFill=1;endSize=5;jettySize=auto;orthogonalLoop=1;strokeColor=#B3B3B3;strokeWidth=1;fontFamily=Verdana;fontSize=12" edge="1" parent="1" source="mlnYqS1sxwCYaisOI2XQ-2" target="mlnYqS1sxwCYaisOI2XQ-5">
          <mxGeometry relative="1" as="geometry" />
        </mxCell>
        <mxCell id="mlnYqS1sxwCYaisOI2XQ-7" value="relation" style="edgeStyle=none;rounded=1;html=1;labelBackgroundColor=none;startArrow=none;startFill=0;startSize=5;endArrow=classicThin;endFill=1;endSize=5;jettySize=auto;orthogonalLoop=1;strokeColor=#B3B3B3;strokeWidth=1;fontFamily=Verdana;fontSize=12" edge="1" parent="1" source="mlnYqS1sxwCYaisOI2XQ-2" target="mlnYqS1sxwCYaisOI2XQ-1">
          <mxGeometry relative="1" as="geometry" />
        </mxCell>
        <mxCell id="mlnYqS1sxwCYaisOI2XQ-8" value="relation" style="edgeStyle=none;rounded=1;html=1;labelBackgroundColor=none;startArrow=none;startFill=0;startSize=5;endArrow=classicThin;endFill=1;endSize=5;jettySize=auto;orthogonalLoop=1;strokeColor=#B3B3B3;strokeWidth=1;fontFamily=Verdana;fontSize=12" edge="1" parent="1" source="mlnYqS1sxwCYaisOI2XQ-2" target="mlnYqS1sxwCYaisOI2XQ-3">
          <mxGeometry relative="1" as="geometry" />
        </mxCell>
        <mxCell id="mlnYqS1sxwCYaisOI2XQ-85" style="rounded=0;orthogonalLoop=1;jettySize=auto;html=1;exitX=1;exitY=0.25;exitDx=0;exitDy=0;" edge="1" parent="1" source="mlnYqS1sxwCYaisOI2XQ-10" target="mlnYqS1sxwCYaisOI2XQ-84">
          <mxGeometry relative="1" as="geometry" />
        </mxCell>
        <mxCell id="mlnYqS1sxwCYaisOI2XQ-10" value="&lt;span&gt;隔离性&lt;/span&gt;" style="whiteSpace=wrap;html=1;rounded=1;shadow=1;comic=0;labelBackgroundColor=none;strokeWidth=2;fontFamily=Verdana;fontSize=12;align=center;arcSize=50;" vertex="1" parent="1">
          <mxGeometry x="390" y="170" width="80" height="20" as="geometry" />
        </mxCell>
        <mxCell id="mlnYqS1sxwCYaisOI2XQ-12" value="relation" style="edgeStyle=none;rounded=1;html=1;labelBackgroundColor=none;startArrow=none;startFill=0;startSize=5;endArrow=classicThin;endFill=1;endSize=5;jettySize=auto;orthogonalLoop=1;strokeColor=#B3B3B3;strokeWidth=1;fontFamily=Verdana;fontSize=12" edge="1" parent="1" source="mlnYqS1sxwCYaisOI2XQ-2" target="mlnYqS1sxwCYaisOI2XQ-10">
          <mxGeometry relative="1" as="geometry" />
        </mxCell>
        <mxCell id="mlnYqS1sxwCYaisOI2XQ-57" style="rounded=0;orthogonalLoop=1;jettySize=auto;html=1;exitX=0.657;exitY=1.053;exitDx=0;exitDy=0;exitPerimeter=0;" edge="1" parent="1" source="mlnYqS1sxwCYaisOI2XQ-14" target="mlnYqS1sxwCYaisOI2XQ-53">
          <mxGeometry relative="1" as="geometry" />
        </mxCell>
        <mxCell id="mlnYqS1sxwCYaisOI2XQ-75" style="rounded=0;orthogonalLoop=1;jettySize=auto;html=1;exitX=0;exitY=1;exitDx=0;exitDy=0;" edge="1" parent="1" source="mlnYqS1sxwCYaisOI2XQ-14" target="mlnYqS1sxwCYaisOI2XQ-74">
          <mxGeometry relative="1" as="geometry" />
        </mxCell>
        <mxCell id="mlnYqS1sxwCYaisOI2XQ-14" value="MySQL/存储引擎" style="ellipse;whiteSpace=wrap;html=1;rounded=1;shadow=1;comic=0;labelBackgroundColor=none;strokeWidth=2;fontFamily=Verdana;fontSize=12;align=center;" vertex="1" parent="1">
          <mxGeometry x="540" y="440" width="120" height="80" as="geometry" />
        </mxCell>
        <mxCell id="mlnYqS1sxwCYaisOI2XQ-18" value="" style="endArrow=classic;html=1;rounded=0;" edge="1" parent="1" source="mlnYqS1sxwCYaisOI2XQ-14" target="mlnYqS1sxwCYaisOI2XQ-2">
          <mxGeometry width="50" height="50" relative="1" as="geometry">
            <mxPoint x="460" y="310" as="sourcePoint" />
            <mxPoint x="510" y="260" as="targetPoint" />
          </mxGeometry>
        </mxCell>
        <mxCell id="mlnYqS1sxwCYaisOI2XQ-70" style="rounded=0;orthogonalLoop=1;jettySize=auto;html=1;exitX=1;exitY=1;exitDx=0;exitDy=0;" edge="1" parent="1" source="mlnYqS1sxwCYaisOI2XQ-20" target="mlnYqS1sxwCYaisOI2XQ-69">
          <mxGeometry relative="1" as="geometry" />
        </mxCell>
        <mxCell id="mlnYqS1sxwCYaisOI2XQ-86" style="rounded=0;orthogonalLoop=1;jettySize=auto;html=1;exitX=0;exitY=0;exitDx=0;exitDy=0;entryX=0.445;entryY=1.03;entryDx=0;entryDy=0;entryPerimeter=0;" edge="1" parent="1" source="mlnYqS1sxwCYaisOI2XQ-20" target="mlnYqS1sxwCYaisOI2XQ-87">
          <mxGeometry relative="1" as="geometry">
            <mxPoint x="790" y="120" as="targetPoint" />
          </mxGeometry>
        </mxCell>
        <mxCell id="mlnYqS1sxwCYaisOI2XQ-20" value="锁" style="ellipse;whiteSpace=wrap;html=1;rounded=1;shadow=1;comic=0;labelBackgroundColor=none;strokeWidth=2;fontFamily=Verdana;fontSize=12;align=center;" vertex="1" parent="1">
          <mxGeometry x="800" y="190" width="120" height="80" as="geometry" />
        </mxCell>
        <mxCell id="mlnYqS1sxwCYaisOI2XQ-21" value="" style="endArrow=classic;html=1;rounded=0;exitX=1;exitY=0;exitDx=0;exitDy=0;" edge="1" parent="1" source="mlnYqS1sxwCYaisOI2XQ-14" target="mlnYqS1sxwCYaisOI2XQ-20">
          <mxGeometry width="50" height="50" relative="1" as="geometry">
            <mxPoint x="920" y="519" as="sourcePoint" />
            <mxPoint x="686" y="331" as="targetPoint" />
          </mxGeometry>
        </mxCell>
        <mxCell id="mlnYqS1sxwCYaisOI2XQ-22" value="日志" style="ellipse;whiteSpace=wrap;html=1;rounded=1;shadow=1;comic=0;labelBackgroundColor=none;strokeWidth=2;fontFamily=Verdana;fontSize=12;align=center;" vertex="1" parent="1">
          <mxGeometry x="120" y="490" width="80" height="30" as="geometry" />
        </mxCell>
        <mxCell id="mlnYqS1sxwCYaisOI2XQ-23" value="" style="endArrow=classic;html=1;rounded=0;exitX=0;exitY=0.625;exitDx=0;exitDy=0;exitPerimeter=0;" edge="1" parent="1" source="mlnYqS1sxwCYaisOI2XQ-14" target="mlnYqS1sxwCYaisOI2XQ-22">
          <mxGeometry width="50" height="50" relative="1" as="geometry">
            <mxPoint x="572" y="459" as="sourcePoint" />
            <mxPoint x="338" y="271" as="targetPoint" />
          </mxGeometry>
        </mxCell>
        <mxCell id="mlnYqS1sxwCYaisOI2XQ-46" style="rounded=0;orthogonalLoop=1;jettySize=auto;html=1;exitX=1;exitY=0;exitDx=0;exitDy=0;" edge="1" parent="1" source="mlnYqS1sxwCYaisOI2XQ-24" target="mlnYqS1sxwCYaisOI2XQ-45">
          <mxGeometry relative="1" as="geometry" />
        </mxCell>
        <mxCell id="mlnYqS1sxwCYaisOI2XQ-52" style="rounded=0;orthogonalLoop=1;jettySize=auto;html=1;exitX=1;exitY=1;exitDx=0;exitDy=0;entryX=0;entryY=0.5;entryDx=0;entryDy=0;" edge="1" parent="1" source="mlnYqS1sxwCYaisOI2XQ-24" target="mlnYqS1sxwCYaisOI2XQ-51">
          <mxGeometry relative="1" as="geometry" />
        </mxCell>
        <mxCell id="mlnYqS1sxwCYaisOI2XQ-24" value="索引" style="ellipse;whiteSpace=wrap;html=1;rounded=1;shadow=1;comic=0;labelBackgroundColor=none;strokeWidth=2;fontFamily=Verdana;fontSize=12;align=center;" vertex="1" parent="1">
          <mxGeometry x="710" y="580" width="110" height="50" as="geometry" />
        </mxCell>
        <mxCell id="mlnYqS1sxwCYaisOI2XQ-25" value="" style="endArrow=classic;html=1;rounded=0;" edge="1" parent="1" source="mlnYqS1sxwCYaisOI2XQ-14" target="mlnYqS1sxwCYaisOI2XQ-24">
          <mxGeometry width="50" height="50" relative="1" as="geometry">
            <mxPoint x="550" y="500" as="sourcePoint" />
            <mxPoint x="249" y="542" as="targetPoint" />
          </mxGeometry>
        </mxCell>
        <mxCell id="mlnYqS1sxwCYaisOI2XQ-26" value="relation" style="edgeStyle=none;rounded=1;html=1;labelBackgroundColor=none;startArrow=none;startFill=0;startSize=5;endArrow=classicThin;endFill=1;endSize=5;jettySize=auto;orthogonalLoop=1;strokeColor=#B3B3B3;strokeWidth=1;fontFamily=Verdana;fontSize=12;exitX=0.043;exitY=0.313;exitDx=0;exitDy=0;exitPerimeter=0;" edge="1" parent="1" source="mlnYqS1sxwCYaisOI2XQ-20" target="mlnYqS1sxwCYaisOI2XQ-10">
          <mxGeometry relative="1" as="geometry">
            <mxPoint x="319" y="202" as="sourcePoint" />
            <mxPoint x="345" y="150" as="targetPoint" />
          </mxGeometry>
        </mxCell>
        <mxCell id="mlnYqS1sxwCYaisOI2XQ-81" style="rounded=0;orthogonalLoop=1;jettySize=auto;html=1;exitX=0.5;exitY=1;exitDx=0;exitDy=0;" edge="1" parent="1" source="mlnYqS1sxwCYaisOI2XQ-27" target="mlnYqS1sxwCYaisOI2XQ-80">
          <mxGeometry relative="1" as="geometry" />
        </mxCell>
        <mxCell id="mlnYqS1sxwCYaisOI2XQ-27" value="binlog" style="whiteSpace=wrap;html=1;rounded=1;shadow=1;comic=0;labelBackgroundColor=none;strokeWidth=2;fontFamily=Verdana;fontSize=12;align=center;arcSize=50;" vertex="1" parent="1">
          <mxGeometry x="60" y="560" width="100" height="20" as="geometry" />
        </mxCell>
        <mxCell id="mlnYqS1sxwCYaisOI2XQ-28" value="&lt;span&gt;redo&lt;/span&gt;" style="whiteSpace=wrap;html=1;rounded=1;shadow=1;comic=0;labelBackgroundColor=none;strokeWidth=2;fontFamily=Verdana;fontSize=12;align=center;arcSize=50;" vertex="1" parent="1">
          <mxGeometry x="180" y="550" width="100" height="20" as="geometry" />
        </mxCell>
        <mxCell id="mlnYqS1sxwCYaisOI2XQ-29" value="&lt;span&gt;undo&lt;/span&gt;" style="whiteSpace=wrap;html=1;rounded=1;shadow=1;comic=0;labelBackgroundColor=none;strokeWidth=2;fontFamily=Verdana;fontSize=12;align=center;arcSize=50;" vertex="1" parent="1">
          <mxGeometry x="210" y="435" width="100" height="20" as="geometry" />
        </mxCell>
        <mxCell id="mlnYqS1sxwCYaisOI2XQ-30" value="&lt;span&gt;慢查询&lt;/span&gt;" style="whiteSpace=wrap;html=1;rounded=1;shadow=1;comic=0;labelBackgroundColor=none;strokeWidth=2;fontFamily=Verdana;fontSize=12;align=center;arcSize=50;" vertex="1" parent="1">
          <mxGeometry x="70" y="425" width="100" height="20" as="geometry" />
        </mxCell>
        <mxCell id="mlnYqS1sxwCYaisOI2XQ-31" value="relation" style="edgeStyle=none;rounded=1;html=1;labelBackgroundColor=none;startArrow=none;startFill=0;startSize=5;endArrow=classicThin;endFill=1;endSize=5;jettySize=auto;orthogonalLoop=1;strokeColor=#B3B3B3;strokeWidth=1;fontFamily=Verdana;fontSize=12;entryX=0.5;entryY=0;entryDx=0;entryDy=0;" edge="1" parent="1" source="mlnYqS1sxwCYaisOI2XQ-22" target="mlnYqS1sxwCYaisOI2XQ-30">
          <mxGeometry x="-0.2716" y="5" relative="1" as="geometry">
            <mxPoint x="250" y="262" as="sourcePoint" />
            <mxPoint x="163" y="300" as="targetPoint" />
            <mxPoint y="-1" as="offset" />
          </mxGeometry>
        </mxCell>
        <mxCell id="mlnYqS1sxwCYaisOI2XQ-32" value="relation" style="edgeStyle=none;rounded=1;html=1;labelBackgroundColor=none;startArrow=none;startFill=0;startSize=5;endArrow=classicThin;endFill=1;endSize=5;jettySize=auto;orthogonalLoop=1;strokeColor=#B3B3B3;strokeWidth=1;fontFamily=Verdana;fontSize=12;entryX=0.5;entryY=0;entryDx=0;entryDy=0;" edge="1" parent="1" source="mlnYqS1sxwCYaisOI2XQ-22" target="mlnYqS1sxwCYaisOI2XQ-27">
          <mxGeometry x="-0.2716" y="5" relative="1" as="geometry">
            <mxPoint x="260" y="272" as="sourcePoint" />
            <mxPoint x="173" y="310" as="targetPoint" />
            <mxPoint y="-1" as="offset" />
          </mxGeometry>
        </mxCell>
        <mxCell id="mlnYqS1sxwCYaisOI2XQ-33" value="relation" style="edgeStyle=none;rounded=1;html=1;labelBackgroundColor=none;startArrow=none;startFill=0;startSize=5;endArrow=classicThin;endFill=1;endSize=5;jettySize=auto;orthogonalLoop=1;strokeColor=#B3B3B3;strokeWidth=1;fontFamily=Verdana;fontSize=12;entryX=0.5;entryY=0;entryDx=0;entryDy=0;" edge="1" parent="1" source="mlnYqS1sxwCYaisOI2XQ-22" target="mlnYqS1sxwCYaisOI2XQ-28">
          <mxGeometry x="-0.2716" y="5" relative="1" as="geometry">
            <mxPoint x="270" y="282" as="sourcePoint" />
            <mxPoint x="183" y="320" as="targetPoint" />
            <mxPoint y="-1" as="offset" />
          </mxGeometry>
        </mxCell>
        <mxCell id="mlnYqS1sxwCYaisOI2XQ-34" value="relation" style="edgeStyle=none;rounded=1;html=1;labelBackgroundColor=none;startArrow=none;startFill=0;startSize=5;endArrow=classicThin;endFill=1;endSize=5;jettySize=auto;orthogonalLoop=1;strokeColor=#B3B3B3;strokeWidth=1;fontFamily=Verdana;fontSize=12;entryX=0.38;entryY=1.08;entryDx=0;entryDy=0;entryPerimeter=0;exitX=0.75;exitY=0.093;exitDx=0;exitDy=0;exitPerimeter=0;" edge="1" parent="1" source="mlnYqS1sxwCYaisOI2XQ-22" target="mlnYqS1sxwCYaisOI2XQ-29">
          <mxGeometry x="-0.2716" y="5" relative="1" as="geometry">
            <mxPoint x="280" y="292" as="sourcePoint" />
            <mxPoint x="193" y="330" as="targetPoint" />
            <mxPoint y="-1" as="offset" />
          </mxGeometry>
        </mxCell>
        <mxCell id="mlnYqS1sxwCYaisOI2XQ-35" value="relation" style="edgeStyle=none;rounded=1;html=1;labelBackgroundColor=none;startArrow=none;startFill=0;startSize=5;endArrow=classicThin;endFill=1;endSize=5;jettySize=auto;orthogonalLoop=1;strokeColor=#B3B3B3;strokeWidth=1;fontFamily=Verdana;fontSize=12;exitX=0;exitY=0.25;exitDx=0;exitDy=0;entryX=0;entryY=0.5;entryDx=0;entryDy=0;" edge="1" parent="1" source="mlnYqS1sxwCYaisOI2XQ-29" target="mlnYqS1sxwCYaisOI2XQ-5">
          <mxGeometry x="-0.2716" y="5" relative="1" as="geometry">
            <mxPoint x="290" y="302" as="sourcePoint" />
            <mxPoint x="203" y="340" as="targetPoint" />
            <mxPoint y="-1" as="offset" />
            <Array as="points">
              <mxPoint x="110" y="140" />
            </Array>
          </mxGeometry>
        </mxCell>
        <mxCell id="mlnYqS1sxwCYaisOI2XQ-88" style="rounded=0;orthogonalLoop=1;jettySize=auto;html=1;exitX=1;exitY=0.75;exitDx=0;exitDy=0;" edge="1" parent="1" source="mlnYqS1sxwCYaisOI2XQ-36" target="mlnYqS1sxwCYaisOI2XQ-87">
          <mxGeometry relative="1" as="geometry" />
        </mxCell>
        <mxCell id="mlnYqS1sxwCYaisOI2XQ-36" value="&lt;span&gt;MVCC&lt;br&gt;&lt;/span&gt;" style="whiteSpace=wrap;html=1;rounded=1;shadow=1;comic=0;labelBackgroundColor=none;strokeWidth=2;fontFamily=Verdana;fontSize=12;align=center;arcSize=50;" vertex="1" parent="1">
          <mxGeometry x="620" y="40" width="100" height="20" as="geometry" />
        </mxCell>
        <mxCell id="mlnYqS1sxwCYaisOI2XQ-39" value="relation" style="edgeStyle=none;rounded=1;html=1;labelBackgroundColor=none;startArrow=none;startFill=0;startSize=5;endArrow=classicThin;endFill=1;endSize=5;jettySize=auto;orthogonalLoop=1;strokeColor=#B3B3B3;strokeWidth=1;fontFamily=Verdana;fontSize=12;entryX=0.92;entryY=0.05;entryDx=0;entryDy=0;entryPerimeter=0;exitX=0.5;exitY=1;exitDx=0;exitDy=0;" edge="1" parent="1" source="mlnYqS1sxwCYaisOI2XQ-36" target="mlnYqS1sxwCYaisOI2XQ-10">
          <mxGeometry relative="1" as="geometry">
            <mxPoint x="354" y="222" as="sourcePoint" />
            <mxPoint x="420" y="200" as="targetPoint" />
          </mxGeometry>
        </mxCell>
        <mxCell id="mlnYqS1sxwCYaisOI2XQ-40" value="relation" style="edgeStyle=none;rounded=1;html=1;labelBackgroundColor=none;startArrow=none;startFill=0;startSize=5;endArrow=classicThin;endFill=1;endSize=5;jettySize=auto;orthogonalLoop=1;strokeColor=#B3B3B3;strokeWidth=1;fontFamily=Verdana;fontSize=12;entryX=0.75;entryY=1;entryDx=0;entryDy=0;exitX=0;exitY=0;exitDx=0;exitDy=0;" edge="1" parent="1" source="mlnYqS1sxwCYaisOI2XQ-29" target="mlnYqS1sxwCYaisOI2XQ-36">
          <mxGeometry relative="1" as="geometry">
            <mxPoint x="364" y="232" as="sourcePoint" />
            <mxPoint x="430" y="210" as="targetPoint" />
            <Array as="points">
              <mxPoint x="180" y="80" />
            </Array>
          </mxGeometry>
        </mxCell>
        <mxCell id="mlnYqS1sxwCYaisOI2XQ-42" value="relation" style="edgeStyle=none;rounded=1;html=1;labelBackgroundColor=none;startArrow=none;startFill=0;startSize=5;endArrow=classicThin;endFill=1;endSize=5;jettySize=auto;orthogonalLoop=1;strokeColor=#B3B3B3;strokeWidth=1;fontFamily=Verdana;fontSize=12;entryX=0.12;entryY=1.03;entryDx=0;entryDy=0;entryPerimeter=0;" edge="1" parent="1" source="mlnYqS1sxwCYaisOI2XQ-28" target="mlnYqS1sxwCYaisOI2XQ-3">
          <mxGeometry x="-0.2716" y="5" relative="1" as="geometry">
            <mxPoint x="163" y="504" as="sourcePoint" />
            <mxPoint x="105" y="430" as="targetPoint" />
            <mxPoint y="-1" as="offset" />
          </mxGeometry>
        </mxCell>
        <mxCell id="mlnYqS1sxwCYaisOI2XQ-71" style="rounded=0;orthogonalLoop=1;jettySize=auto;html=1;exitX=1;exitY=0;exitDx=0;exitDy=0;" edge="1" parent="1" source="mlnYqS1sxwCYaisOI2XQ-43" target="mlnYqS1sxwCYaisOI2XQ-69">
          <mxGeometry relative="1" as="geometry" />
        </mxCell>
        <mxCell id="mlnYqS1sxwCYaisOI2XQ-43" value="查询/更新执行过程" style="ellipse;whiteSpace=wrap;html=1;rounded=1;shadow=1;comic=0;labelBackgroundColor=none;strokeWidth=2;fontFamily=Verdana;fontSize=12;align=center;" vertex="1" parent="1">
          <mxGeometry x="810" y="400" width="120" height="80" as="geometry" />
        </mxCell>
        <mxCell id="mlnYqS1sxwCYaisOI2XQ-44" style="rounded=0;orthogonalLoop=1;jettySize=auto;html=1;entryX=0.033;entryY=0.638;entryDx=0;entryDy=0;entryPerimeter=0;" edge="1" parent="1" source="mlnYqS1sxwCYaisOI2XQ-14" target="mlnYqS1sxwCYaisOI2XQ-43">
          <mxGeometry relative="1" as="geometry" />
        </mxCell>
        <mxCell id="mlnYqS1sxwCYaisOI2XQ-47" style="rounded=0;orthogonalLoop=1;jettySize=auto;html=1;exitX=0.5;exitY=0;exitDx=0;exitDy=0;" edge="1" parent="1" source="mlnYqS1sxwCYaisOI2XQ-45" target="mlnYqS1sxwCYaisOI2XQ-43">
          <mxGeometry relative="1" as="geometry">
            <mxPoint x="930" y="590" as="sourcePoint" />
          </mxGeometry>
        </mxCell>
        <mxCell id="mlnYqS1sxwCYaisOI2XQ-45" value="&lt;span&gt;索引失效&lt;/span&gt;" style="whiteSpace=wrap;html=1;rounded=1;shadow=1;comic=0;labelBackgroundColor=none;strokeWidth=2;fontFamily=Verdana;fontSize=12;align=center;arcSize=50;" vertex="1" parent="1">
          <mxGeometry x="880" y="560" width="100" height="20" as="geometry" />
        </mxCell>
        <mxCell id="mlnYqS1sxwCYaisOI2XQ-51" value="&lt;span&gt;索引优化：1、索引下推 2、覆盖索引 3、MRR 多范围读取优化 4、索引合并 6、change buffer 7、索引跳跃扫描（8.0支持）&lt;/span&gt;" style="whiteSpace=wrap;html=1;rounded=1;shadow=1;comic=0;labelBackgroundColor=none;strokeWidth=2;fontFamily=Verdana;fontSize=12;align=center;arcSize=50;" vertex="1" parent="1">
          <mxGeometry x="885" y="620" width="205" height="60" as="geometry" />
        </mxCell>
        <mxCell id="mlnYqS1sxwCYaisOI2XQ-55" style="rounded=0;orthogonalLoop=1;jettySize=auto;html=1;exitX=0;exitY=1;exitDx=0;exitDy=0;" edge="1" parent="1" source="mlnYqS1sxwCYaisOI2XQ-53" target="mlnYqS1sxwCYaisOI2XQ-54">
          <mxGeometry relative="1" as="geometry" />
        </mxCell>
        <mxCell id="mlnYqS1sxwCYaisOI2XQ-59" style="rounded=0;orthogonalLoop=1;jettySize=auto;html=1;exitX=0.5;exitY=1;exitDx=0;exitDy=0;" edge="1" parent="1" source="mlnYqS1sxwCYaisOI2XQ-53" target="mlnYqS1sxwCYaisOI2XQ-58">
          <mxGeometry relative="1" as="geometry" />
        </mxCell>
        <mxCell id="mlnYqS1sxwCYaisOI2XQ-53" value="性能问题" style="ellipse;whiteSpace=wrap;html=1;rounded=1;shadow=1;comic=0;labelBackgroundColor=none;strokeWidth=2;fontFamily=Verdana;fontSize=12;align=center;" vertex="1" parent="1">
          <mxGeometry x="640" y="680" width="120" height="40" as="geometry" />
        </mxCell>
        <mxCell id="mlnYqS1sxwCYaisOI2XQ-72" style="rounded=0;orthogonalLoop=1;jettySize=auto;html=1;exitX=0;exitY=0;exitDx=0;exitDy=0;entryX=1;entryY=0.75;entryDx=0;entryDy=0;" edge="1" parent="1" source="mlnYqS1sxwCYaisOI2XQ-54" target="mlnYqS1sxwCYaisOI2XQ-28">
          <mxGeometry relative="1" as="geometry" />
        </mxCell>
        <mxCell id="mlnYqS1sxwCYaisOI2XQ-54" value="更新性能：WAL 机制" style="whiteSpace=wrap;html=1;rounded=1;shadow=1;comic=0;labelBackgroundColor=none;strokeWidth=2;fontFamily=Verdana;fontSize=12;align=center;arcSize=50;" vertex="1" parent="1">
          <mxGeometry x="480" y="730" width="130" height="30" as="geometry" />
        </mxCell>
        <mxCell id="mlnYqS1sxwCYaisOI2XQ-63" style="rounded=0;orthogonalLoop=1;jettySize=auto;html=1;entryX=0.5;entryY=0;entryDx=0;entryDy=0;" edge="1" parent="1" source="mlnYqS1sxwCYaisOI2XQ-58" target="mlnYqS1sxwCYaisOI2XQ-61">
          <mxGeometry relative="1" as="geometry" />
        </mxCell>
        <mxCell id="mlnYqS1sxwCYaisOI2XQ-64" style="rounded=0;orthogonalLoop=1;jettySize=auto;html=1;exitX=0.25;exitY=1;exitDx=0;exitDy=0;" edge="1" parent="1" source="mlnYqS1sxwCYaisOI2XQ-58" target="mlnYqS1sxwCYaisOI2XQ-60">
          <mxGeometry relative="1" as="geometry" />
        </mxCell>
        <mxCell id="mlnYqS1sxwCYaisOI2XQ-58" value="内存：3、sort buffer 4、query cache 5、redo log buffer" style="whiteSpace=wrap;html=1;rounded=1;shadow=1;comic=0;labelBackgroundColor=none;strokeWidth=2;fontFamily=Verdana;fontSize=12;align=center;arcSize=50;" vertex="1" parent="1">
          <mxGeometry x="540" y="790" width="200" height="50" as="geometry" />
        </mxCell>
        <mxCell id="mlnYqS1sxwCYaisOI2XQ-60" value="&lt;span&gt;1、buffer pool：&lt;/span&gt;LRU 列表、Free 列表、缓冲池污染（停留时间窗口）、预读失效（LRU new old）" style="whiteSpace=wrap;html=1;rounded=1;shadow=1;comic=0;labelBackgroundColor=none;strokeWidth=2;fontFamily=Verdana;fontSize=12;align=center;arcSize=50;" vertex="1" parent="1">
          <mxGeometry x="390" y="890" width="160" height="60" as="geometry" />
        </mxCell>
        <mxCell id="mlnYqS1sxwCYaisOI2XQ-65" style="rounded=0;orthogonalLoop=1;jettySize=auto;html=1;" edge="1" parent="1" source="mlnYqS1sxwCYaisOI2XQ-61" target="mlnYqS1sxwCYaisOI2XQ-51">
          <mxGeometry relative="1" as="geometry" />
        </mxCell>
        <mxCell id="mlnYqS1sxwCYaisOI2XQ-61" value="2、change biffer" style="whiteSpace=wrap;html=1;rounded=1;shadow=1;comic=0;labelBackgroundColor=none;strokeWidth=2;fontFamily=Verdana;fontSize=12;align=center;arcSize=50;" vertex="1" parent="1">
          <mxGeometry x="580" y="900" width="120" height="20" as="geometry" />
        </mxCell>
        <mxCell id="mlnYqS1sxwCYaisOI2XQ-69" value="&lt;span&gt;如何加锁&lt;/span&gt;" style="whiteSpace=wrap;html=1;rounded=1;shadow=1;comic=0;labelBackgroundColor=none;strokeWidth=2;fontFamily=Verdana;fontSize=12;align=center;arcSize=50;" vertex="1" parent="1">
          <mxGeometry x="880" y="320" width="100" height="20" as="geometry" />
        </mxCell>
        <mxCell id="mlnYqS1sxwCYaisOI2XQ-78" style="rounded=0;orthogonalLoop=1;jettySize=auto;html=1;exitX=0;exitY=1;exitDx=0;exitDy=0;entryX=1;entryY=0.25;entryDx=0;entryDy=0;" edge="1" parent="1" source="mlnYqS1sxwCYaisOI2XQ-74" target="mlnYqS1sxwCYaisOI2XQ-77">
          <mxGeometry relative="1" as="geometry" />
        </mxCell>
        <mxCell id="mlnYqS1sxwCYaisOI2XQ-74" value="高可用性" style="ellipse;whiteSpace=wrap;html=1;rounded=1;shadow=1;comic=0;labelBackgroundColor=none;strokeWidth=2;fontFamily=Verdana;fontSize=12;align=center;" vertex="1" parent="1">
          <mxGeometry x="450" y="550" width="110" height="50" as="geometry" />
        </mxCell>
        <mxCell id="mlnYqS1sxwCYaisOI2XQ-77" value="&lt;span&gt;主从复制&lt;/span&gt;" style="whiteSpace=wrap;html=1;rounded=1;shadow=1;comic=0;labelBackgroundColor=none;strokeWidth=2;fontFamily=Verdana;fontSize=12;align=center;arcSize=50;" vertex="1" parent="1">
          <mxGeometry x="330" y="600" width="100" height="20" as="geometry" />
        </mxCell>
        <mxCell id="mlnYqS1sxwCYaisOI2XQ-79" style="rounded=0;orthogonalLoop=1;jettySize=auto;html=1;entryX=0.636;entryY=1.17;entryDx=0;entryDy=0;entryPerimeter=0;" edge="1" parent="1" target="mlnYqS1sxwCYaisOI2XQ-27">
          <mxGeometry relative="1" as="geometry">
            <mxPoint x="330" y="610" as="sourcePoint" />
          </mxGeometry>
        </mxCell>
        <mxCell id="mlnYqS1sxwCYaisOI2XQ-80" value="两阶段提交、组提交" style="whiteSpace=wrap;html=1;rounded=1;shadow=1;comic=0;labelBackgroundColor=none;strokeWidth=2;fontFamily=Verdana;fontSize=12;align=center;arcSize=50;" vertex="1" parent="1">
          <mxGeometry x="80" y="660" width="120" height="20" as="geometry" />
        </mxCell>
        <mxCell id="mlnYqS1sxwCYaisOI2XQ-82" style="rounded=0;orthogonalLoop=1;jettySize=auto;html=1;exitX=0.5;exitY=1;exitDx=0;exitDy=0;entryX=0.577;entryY=0.01;entryDx=0;entryDy=0;entryPerimeter=0;" edge="1" parent="1" source="mlnYqS1sxwCYaisOI2XQ-28" target="mlnYqS1sxwCYaisOI2XQ-80">
          <mxGeometry relative="1" as="geometry" />
        </mxCell>
        <mxCell id="mlnYqS1sxwCYaisOI2XQ-83" style="rounded=0;orthogonalLoop=1;jettySize=auto;html=1;exitX=0;exitY=1;exitDx=0;exitDy=0;entryX=0.903;entryY=0.97;entryDx=0;entryDy=0;entryPerimeter=0;" edge="1" parent="1" source="mlnYqS1sxwCYaisOI2XQ-77" target="mlnYqS1sxwCYaisOI2XQ-80">
          <mxGeometry relative="1" as="geometry" />
        </mxCell>
        <mxCell id="mlnYqS1sxwCYaisOI2XQ-84" value="隔离级别：默认可重复读，可以引入降级为读已提交" style="whiteSpace=wrap;html=1;rounded=1;shadow=1;comic=0;labelBackgroundColor=none;strokeWidth=2;fontFamily=Verdana;fontSize=12;align=center;arcSize=50;fillColor=#ffe6cc;strokeColor=#d79b00;" vertex="1" parent="1">
          <mxGeometry x="550" y="140" width="160" height="30" as="geometry" />
        </mxCell>
        <mxCell id="mlnYqS1sxwCYaisOI2XQ-87" value="&lt;span&gt;为什么有锁还需要MVCC&lt;/span&gt;" style="whiteSpace=wrap;html=1;rounded=1;shadow=1;comic=0;labelBackgroundColor=none;strokeWidth=2;fontFamily=Verdana;fontSize=12;align=center;arcSize=50;" vertex="1" parent="1">
          <mxGeometry x="740" y="90" width="170" height="20" as="geometry" />
        </mxCell>
      </root>
    </mxGraphModel>
  </diagram>
</mxfile>
